# xmcd
#
# Track frame offsets:
#	150
#	19329
#	36285
#	54833
#	71213
#	86964
#	101968
#	122205
#	136252
#	152754
#	168976
#	186667
#	203170
#	220832
#	233501
#	262963
#
# Disc length: 3821 seconds
#
# Revision: 0
# Processed by: cddbd v1.5.2PL0 Copyright (c) Steve Scherf et al.
# Submitted via: audiograbber 1.83.01
#
DISCID=eb0eeb10
DTITLE=Various Artist - ASK-72 Mixed Country Vol 10 Disc 1
DYEAR=2007
DGENRE=Karaoke
TTITLE0=Alan Jackson - A Woman's Love
TTITLE1=Blake Shelton - Don't Make Me
TTITLE2=Brad Paisley - Ticks
TTITLE3=Bucky Covington - A Different World
TTITLE4=Carrie Underwood - I'll Stand By You
TTITLE5=Craig Morgan - Tough
TTITLE6=Darryl Worley - I Just Came Back From A War
TTITLE7=Eric Church - Gules Like Me
TTITLE8=Gary Allan - A Feelin' Like That
TTITLE9=George Strait - Give It Away
TTITLE10=Gretchen Wilson - Come To Bed
TTITLE11=Heartland - I Loved Her First
TTITLE12=Jack Ingram - Lips Of An Angel
TTITLE13=Jack Ingram - Love You
TTITLE14=Jake Owen - Startin' With Me
TTITLE15=Data - Data Track
EXTD=
EXTT0=
EXTT1=
EXTT2=
EXTT3=
EXTT4=
EXTT5=
EXTT6=
EXTT7=
EXTT8=
EXTT9=
EXTT10=
EXTT11=
EXTT12=
EXTT13=
EXTT14=
EXTT15=
PLAYORDER=
